<?xml version="1.0" encoding="utf-8"?>
<!-- Svg Vector Icons : http://www.onlinewebfonts.com/icon -->
<!DOCTYPE svg PUBLIC "-//W3C//DTD SVG 1.1//EN" "http://www.w3.org/Graphics/SVG/1.1/DTD/svg11.dtd">
<svg version="1.1" xmlns="http://www.w3.org/2000/svg" xmlns:xlink="http://www.w3.org/1999/xlink" x="0px" y="0px" viewBox="0 0 256 256" enable-background="new 0 0 256 256" xml:space="preserve">
<metadata> Svg Vector Icons : http://www.onlinewebfonts.com/icon </metadata>
<g><g><path fill="#000000" d="M189.4,166.1c0,13.4-4.4,25-13.1,34.7c-8.7,9.7-20.1,15.7-34.1,18v23c0,1.2-0.4,2.2-1.2,3c-0.8,0.8-1.8,1.2-3,1.2h-17.8c-1.1,0-2.1-0.4-3-1.3c-0.8-0.8-1.3-1.8-1.3-3v-23c-5.8-0.8-11.4-2.1-16.8-4.1s-9.9-3.9-13.4-5.9c-3.5-2-6.8-4.1-9.8-6.3c-3-2.2-5-3.9-6.1-4.9c-1.1-1.1-1.9-1.9-2.3-2.4c-1.5-1.9-1.6-3.6-0.3-5.4L81,172c0.6-0.9,1.6-1.4,3-1.6c1.3-0.2,2.4,0.2,3.2,1.2l0.3,0.3c9.9,8.7,20.6,14.2,32,16.5c3.3,0.7,6.5,1.1,9.8,1.1c7.1,0,13.4-1.9,18.8-5.7c5.4-3.8,8.1-9.1,8.1-16.1c0-2.5-0.6-4.8-2-7c-1.3-2.2-2.8-4-4.4-5.5c-1.6-1.5-4.2-3.1-7.7-4.9c-3.5-1.8-6.4-3.2-8.7-4.2c-2.3-1-5.8-2.4-10.5-4.3c-3.4-1.4-6.1-2.5-8.1-3.3c-2-0.8-4.7-2-8.1-3.5c-3.4-1.5-6.2-2.9-8.2-4.1c-2.1-1.2-4.6-2.7-7.4-4.7c-2.9-1.9-5.3-3.8-7.1-5.6c-1.8-1.8-3.7-4-5.7-6.5c-2-2.5-3.6-5.1-4.7-7.6c-1.1-2.6-2-5.5-2.8-8.8c-0.7-3.3-1.1-6.7-1.1-10.3c0-12.1,4.3-22.7,12.9-31.9c8.6-9.1,19.8-15,33.6-17.7V14.2c0-1.1,0.4-2.1,1.3-3c0.8-0.8,1.8-1.3,3-1.3h17.8c1.2,0,2.2,0.4,3,1.2c0.8,0.8,1.2,1.8,1.2,3v23.2c5,0.5,9.9,1.5,14.5,3s8.5,3,11.5,4.4c2.9,1.4,5.7,3.1,8.4,4.9c2.6,1.9,4.3,3.1,5.1,3.8c0.8,0.7,1.4,1.3,2,1.9c1.5,1.6,1.7,3.3,0.7,5l-10.7,19.2c-0.7,1.3-1.7,2-3,2.1c-1.2,0.3-2.4,0-3.6-0.9c-0.3-0.3-0.9-0.8-1.9-1.6s-2.7-2-5.1-3.5c-2.4-1.5-5-2.9-7.7-4.2s-6-2.4-9.8-3.4c-3.8-1-7.6-1.5-11.3-1.5c-8.3,0-15.1,1.9-20.4,5.7S103,81,103,86.9c0,2.3,0.4,4.4,1.1,6.3c0.7,1.9,2,3.8,3.9,5.5c1.9,1.7,3.6,3.2,5.2,4.3c1.6,1.2,4.1,2.6,7.4,4.1c3.3,1.5,5.9,2.7,8,3.6c2,0.8,5.1,2,9.2,3.6c4.6,1.8,8.2,3.1,10.7,4.1c2.5,1,5.8,2.6,10,4.6c4.2,2.1,7.5,3.9,9.9,5.6c2.4,1.7,5.1,3.9,8.2,6.6c3,2.7,5.3,5.5,7,8.4c1.6,2.8,3,6.2,4.1,10.1C188.9,157.6,189.4,161.7,189.4,166.1L189.4,166.1z"/></g></g>
</svg>