<?xml version="1.0" encoding="utf-8"?>
<svg version="1.1" viewBox="0.00 0.00 500.00 500.00" xmlns="http://www.w3.org/2000/svg">
  <g stroke-width="2.00" fill="none" stroke-linecap="butt" style="" transform="matrix(1.559859, 0, 0, 1.559859, -146.644104, -138.386719)">
    <path stroke="#63897f" vector-effect="non-scaling-stroke" d=" M 292.76 400.05 Q 292.16 399.72 291.24 399.94 C 269.87 405.22 248.85 405.50 227.29 401.41 Q 221.83 400.37 216.81 399.61"/>
    <path stroke="#257141" vector-effect="non-scaling-stroke" d=" M 110.33 272.26 Q 110.23 274.54 111.21 276.58"/>
    <path stroke="#49905c" vector-effect="non-scaling-stroke" d=" M 111.35 277.55 Q 111.41 279.20 111.64 280.01 C 113.42 286.30 114.76 293.01 117.01 298.78 Q 120.61 308.05 125.26 316.84 C 128.65 323.24 133.65 330.41 137.81 337.18 Q 140.47 341.52 151.49 352.28"/>
    <path stroke="#257141" vector-effect="non-scaling-stroke" d=" M 151.49 352.28 Q 158.23 359.92 162.93 363.08 C 170.76 368.36 178.67 374.32 186.52 378.63 C 197.14 384.47 208.94 388.32 218.51 390.93 Q 253.40 400.42 288.21 392.19 C 295.81 390.40 303.96 387.47 311.72 384.69 Q 316.12 383.11 320.21 380.86 Q 334.76 372.85 347.75 362.49 Q 357.14 354.99 361.41 349.91 C 368.71 341.23 375.48 333.89 381.78 323.08 C 385.87 316.06 390.11 306.31 392.56 299.81 C 409.94 253.68 403.28 201.96 373.62 162.13 Q 370.18 157.51 367.36 154.99"/>
    <path stroke="#49905c" vector-effect="non-scaling-stroke" d=" M 367.36 154.99 C 359.49 144.80 349.74 137.40 339.51 129.71 Q 333.03 124.83 325.95 121.24"/>
    <path stroke="#5fc46a" vector-effect="non-scaling-stroke" d=" M 367.36 154.99 C 366.82 156.51 366.71 157.43 367.75 158.80 C 374.55 167.77 381.25 177.65 385.31 188.21 C 389.40 198.82 392.68 208.01 395.50 220.50 Q 397.37 228.82 397.78 243.92"/>
    <path stroke="#75dd78" vector-effect="non-scaling-stroke" d=" M 397.78 243.92 Q 394.70 243.98 391.87 245.31 A 0.69 0.69 0.0 0 1 391.34 245.33 Q 390.59 245.07 389.92 245.49 A 0.82 0.77 29.4 0 1 389.43 245.61 Q 388.67 245.55 388.93 245.12 A 0.27 0.27 0.0 0 0 388.55 244.76 Q 387.56 245.46 387.46 247.01 Q 386.79 256.96 386.73 260.79 Q 386.73 261.04 386.48 261.05 L 386.21 261.06 Q 386.07 261.07 386.07 260.94 L 385.90 256.55"/>
    <path stroke="#49905c" vector-effect="non-scaling-stroke" d=" M 384.14 250.03 C 384.24 225.29 377.78 204.32 366.37 183.00"/>
    <path stroke="#5fc46a" vector-effect="non-scaling-stroke" d=" M 366.37 183.00 Q 366.85 173.33 367.01 163.75 Q 367.12 156.63 359.90 154.90"/>
    <path stroke="#49905c" vector-effect="non-scaling-stroke" d=" M 359.90 154.90 Q 359.46 154.39 358.00 154.28 Q 355.68 154.12 349.55 154.17"/>
    <path stroke="#5fc46a" vector-effect="non-scaling-stroke" d=" M 349.55 154.17 C 345.72 150.75 342.12 146.73 338.32 143.81 C 299.28 113.82 250.63 106.48 204.82 125.33 C 199.65 127.46 194.26 130.56 189.00 133.29 Q 182.42 136.71 177.69 140.20 Q 165.42 149.26 157.96 157.46 C 149.77 166.47 140.58 177.93 135.62 189.54 Q 132.89 195.92 132.86 195.99 C 119.06 226.38 119.32 263.47 131.53 294.22 C 133.45 299.08 135.31 304.32 137.64 308.65 Q 145.36 323.02 157.53 333.67"/>
    <path stroke="#49905c" vector-effect="non-scaling-stroke" d=" M 157.53 333.67 L 168.44 344.02"/>
    <path stroke="#75dd78" vector-effect="non-scaling-stroke" d=" M 177.53 354.23 Q 176.26 356.00 177.26 357.23 Q 177.58 357.64 177.70 358.14 L 178.08 359.84 Q 178.19 360.33 178.09 360.81 Q 177.96 361.51 178.32 362.10 Q 178.57 362.50 178.42 362.95 Q 178.14 363.77 178.47 364.50 Q 178.69 364.97 178.25 365.26 L 177.41 365.81"/>
    <path stroke="#5fc46a" vector-effect="non-scaling-stroke" d=" M 177.41 365.81 Q 165.89 358.99 155.75 349.26 A 1.34 1.34 0.0 0 0 153.51 349.94 Q 153.17 351.49 151.49 352.28"/>
    <path stroke="#51be5d" vector-effect="non-scaling-stroke" d=" M 177.41 365.81 Q 194.33 377.42 213.71 383.53 C 220.18 385.57 227.33 386.66 234.27 387.85 Q 254.85 391.39 275.47 388.02 Q 290.24 385.60 294.26 384.51 Q 303.98 381.90 317.30 375.16 C 322.24 372.66 327.23 369.33 332.15 366.31 C 341.50 360.58 349.18 353.59 356.91 346.18 Q 362.13 341.16 366.89 334.72 C 371.51 328.47 376.43 322.12 380.27 315.38 C 384.09 308.66 386.14 302.47 388.65 295.72 Q 397.95 270.68 397.78 243.92"/>
    <path stroke="#257141" vector-effect="non-scaling-stroke" d=" M 359.90 154.90 L 358.77 169.71 A 3.35 3.32 31.1 0 0 359.29 171.78 L 366.37 183.00"/>
    <path stroke="#257141" vector-effect="non-scaling-stroke" d=" M 349.55 154.17 L 342.22 154.26 A 1.28 1.27 -25.1 0 1 341.36 153.95 C 336.00 149.26 331.72 145.60 324.57 140.92 C 317.22 136.11 307.51 131.96 300.54 129.20 C 277.90 120.22 252.55 118.33 228.69 123.93 C 209.26 128.50 189.49 136.95 174.38 150.21 C 168.61 155.28 161.52 160.53 157.40 166.15 C 150.50 175.55 143.92 183.34 138.29 194.85 C 135.68 200.18 134.03 205.84 132.23 211.58 Q 121.06 247.16 131.58 282.98 Q 135.56 296.52 137.67 301.29 Q 140.81 308.37 147.38 318.45 Q 147.67 318.91 152.71 325.51 Q 155.55 329.24 157.53 333.67"/>
    <path stroke="#63897f" vector-effect="non-scaling-stroke" d=" M 141.54 254.09 L 135.47 253.87 Q 134.93 253.86 134.95 254.39 C 135.50 271.11 139.60 286.38 146.81 301.43 Q 149.17 306.36 157.02 317.99"/>
    <path stroke="#63897f" vector-effect="non-scaling-stroke" d=" M 325.77 151.70 Q 323.87 149.83 321.56 148.41 C 312.97 143.11 302.77 137.51 292.94 135.06 C 286.96 133.56 280.39 131.60 275.09 130.69 Q 268.28 129.51 261.27 129.02 A 0.66 0.66 0.0 0 0 260.60 129.90 L 261.31 131.90"/>
    <path stroke="#257141" vector-effect="non-scaling-stroke" d=" M 261.05 134.22 Q 261.17 133.08 261.15 133.06 Q 260.19 131.72 260.20 133.37 Q 260.22 135.87 260.17 138.00 Q 260.12 139.87 260.61 138.71"/>
    <path stroke="#63897f" vector-effect="non-scaling-stroke" d=" M 249.85 135.02 L 250.10 130.03 Q 250.17 128.57 248.73 128.75 C 231.79 130.83 214.18 134.75 199.43 142.94 C 189.84 148.26 180.04 154.87 172.09 162.49 Q 165.49 168.81 159.69 175.89 C 156.89 179.32 154.51 183.23 152.05 187.06 Q 140.22 205.46 136.18 227.00 Q 135.33 231.55 134.81 242.53 Q 134.78 243.05 135.30 243.11 Q 138.39 243.50 141.15 242.82"/>
    <path stroke="#49905c" vector-effect="non-scaling-stroke" d=" M 207.44 293.67 Q 208.39 293.37 209.12 292.61 Q 219.74 281.60 230.79 271.02 A 2.34 2.34 0.0 0 0 231.51 269.33 Q 231.49 237.37 231.52 205.00 C 231.52 199.56 239.40 196.79 241.08 202.92 Q 241.67 205.06 241.48 207.68"/>
    <path stroke="#3b8a4f" vector-effect="non-scaling-stroke" d=" M 241.48 207.68 L 241.34 259.66 A 0.21 0.21 0.0 0 0 241.70 259.81 L 253.23 248.61"/>
    <path stroke="#49905c" vector-effect="non-scaling-stroke" d=" M 253.23 248.61 Q 266.06 235.92 278.80 223.16 C 282.22 219.73 284.96 219.54 287.88 223.63"/>
    <path stroke="#3b8a4f" vector-effect="non-scaling-stroke" d=" M 287.88 223.63 Q 288.77 225.58 288.07 227.54 Q 287.63 228.77 285.82 230.46 C 282.49 233.56 279.38 237.07 276.19 239.98 Q 266.95 248.41 262.33 253.58 C 256.59 260.04 251.41 263.71 245.38 270.24 Q 245.07 270.57 245.52 270.62 L 299.25 277.11 Q 304.00 277.68 303.62 282.45 L 303.54 283.48 A 3.59 3.59 0.0 0 1 299.56 286.77 L 238.09 279.91 A 4.40 4.39 25.3 0 0 234.45 281.21 L 213.27 302.85"/>
    <path stroke="#257141" vector-effect="non-scaling-stroke" d=" M 213.27 302.85 C 231.51 317.19 257.61 318.68 279.00 311.99 C 310.53 302.12 331.77 277.57 341.04 246.39 C 343.82 237.06 345.54 224.09 346.64 214.36 Q 349.20 191.63 349.90 163.86"/>
    <path stroke="#75dd78" vector-effect="non-scaling-stroke" d=" M 345.35 168.43 Q 342.67 169.31 342.03 170.03 C 337.35 175.34 330.71 180.18 325.14 186.42 Q 320.87 191.19 317.16 194.67 C 309.73 201.62 302.94 208.87 295.36 215.94 Q 291.49 219.55 287.88 223.63"/>
    <path stroke="#75dd78" vector-effect="non-scaling-stroke" d=" M 253.23 248.61 Q 252.74 248.69 252.46 248.60 A 0.60 0.59 -81.4 0 1 252.05 248.03 Q 252.02 231.88 251.90 216.00 C 251.88 213.98 251.98 211.97 251.11 210.17 Q 248.43 204.65 241.48 207.68"/>
    <path stroke="#51be5d" vector-effect="non-scaling-stroke" d=" M 213.27 302.85 Q 215.72 302.66 216.32 302.92 Q 252.08 318.09 286.57 301.60 C 297.17 296.52 304.23 289.51 312.65 280.69 C 318.91 274.13 324.41 264.13 327.81 257.33 C 338.09 236.74 342.44 213.48 343.84 190.69 C 344.30 183.29 345.11 175.83 345.35 168.43"/>
    <path stroke="#5fc46a" vector-effect="non-scaling-stroke" d=" M 345.35 168.43 L 345.36 166.80"/>
    <path stroke="#63897f" vector-effect="non-scaling-stroke" d=" M 357.65 254.24 Q 350.48 251.29 354.15 245.35 C 355.59 243.03 357.87 243.17 360.56 242.86"/>
    <path stroke="#63897f" vector-effect="non-scaling-stroke" d=" M 364.44 198.14 Q 362.28 191.93 358.04 185.44 Q 357.69 184.92 357.66 185.55 Q 356.55 206.57 353.52 227.39 C 351.75 239.54 348.20 251.19 344.27 261.80 C 338.89 276.26 330.57 286.61 319.69 298.18 Q 317.87 300.12 315.74 301.70 C 309.28 306.50 302.49 311.61 295.57 314.98 C 287.88 318.72 280.35 321.37 271.62 322.67 C 249.51 325.97 225.53 324.41 206.98 309.27 Q 206.58 308.94 206.21 309.30 L 176.69 338.39 Q 176.23 338.84 176.56 339.39 Q 178.45 342.66 182.52 344.00"/>
    <path stroke="#9ddca8" vector-effect="non-scaling-stroke" d=" M 215.99 232.76 A 1.02 1.02 0.0 0 0 217.69 232.53 L 218.51 230.76 A 1.02 1.02 0.0 0 0 218.40 229.72 L 217.48 228.49 A 1.02 1.02 0.0 0 0 216.03 228.30 L 214.56 229.46 A 1.02 1.02 0.0 0 0 214.42 230.91 L 215.99 232.76"/>
    <path stroke="#51be5d" vector-effect="non-scaling-stroke" d=" M 311.68 216.83 C 310.02 218.59 306.53 218.41 304.47 217.97 A 0.33 0.33 0.0 0 0 304.08 218.23 Q 304.05 218.37 304.03 218.50 Q 303.97 218.81 304.23 218.98 C 307.21 220.90 306.20 223.42 305.15 226.03 Q 304.97 226.49 305.43 226.67 Q 306.05 226.91 306.53 226.47 C 310.01 223.27 311.74 226.30 315.11 226.18 A 0.46 0.46 0.0 0 0 315.47 225.45 Q 312.98 221.89 313.28 217.50 Q 313.45 214.97 311.68 216.83"/>
    <path stroke="#8fd69b" vector-effect="non-scaling-stroke" d=" M 311.12 255.91 C 307.20 254.30 306.22 254.34 304.91 250.00 Q 304.87 249.85 304.78 249.81 Q 304.66 249.76 304.48 249.78 Q 304.15 249.82 304.14 250.15 Q 303.97 254.91 299.29 255.54 Q 298.77 255.60 299.04 256.06 Q 299.15 256.25 299.52 256.31 C 302.70 256.89 303.25 258.42 304.38 261.09 A 0.51 0.51 0.0 0 0 305.34 261.04 Q 306.64 256.83 311.02 256.51 A 0.31 0.31 0.0 0 0 311.12 255.91"/>
  </g>
  <path fill="#0f3d33" d="M 310.02 485.635 C 309.396 485.292 308.606 485.234 307.649 485.463 C 274.315 493.699 241.527 494.136 207.896 487.756 C 202.218 486.675 196.769 485.739 191.549 484.948 C 173.278 479.479 156.135 472.667 140.12 464.514 C 137.562 463.22 134.926 462.268 132.602 460.817 C 120.279 453.096 106.802 444.704 96.366 434.549 C 93.683 431.96 90.314 429.948 87.881 427.748 C 76.982 417.869 69.677 410.21 65.965 404.772 C 64.186 402.162 62.647 400.082 61.347 398.532 C 49.165 383.979 37.591 365.869 30.79 348.133 C 28.247 341.488 25.018 334.188 22.897 328.307 C 4.085 276.343 3.69 223.974 21.711 171.198 C 23.469 166.061 27.577 155.818 34.034 140.469 C 36.249 135.207 41.839 126.082 50.803 113.094 C 51.832 111.586 54.39 108.258 58.477 103.111 C 68.273 90.741 76.759 79.728 91.141 68.56 C 95.29 65.331 99.642 60.76 104.634 57.142 C 180.536 1.923 277.575 -9.199 361.714 35.226 C 367.376 38.22 379.356 43.742 385.892 48.968 C 393.348 54.942 401.163 60.23 408.478 66.407 C 412.971 70.198 417.728 73.614 421.628 77.888 C 434.029 91.458 446.929 104.795 456.226 121.205 C 461.311 130.19 467.129 139.424 471.2 148.222 C 478.968 164.975 485.083 182.133 488.218 200.461 C 489.83 209.862 490.834 216.112 491.229 219.211 C 497.266 265.648 488.421 315.875 467.129 357.945 C 463.822 364.481 458.768 372.093 454.884 379.393 C 451.999 384.821 448.395 390.234 444.48 394.867 C 437.211 403.508 429.802 412.03 422.252 420.433 C 418.592 424.509 415.482 427.566 412.924 429.605 C 399.338 440.43 386.172 452.488 370.714 460.677 C 351.934 470.629 332.482 479.224 312.204 484.652 C 311.258 484.912 310.53 485.24 310.02 485.635 Z M 25.455 286.3 C 25.351 288.671 25.809 290.918 26.828 293.039 L 27.046 294.552 C 27.109 296.268 27.259 297.547 27.499 298.389 C 30.275 308.201 32.365 318.668 35.875 327.668 C 39.619 337.308 43.908 346.698 48.744 355.839 C 54.032 365.822 61.831 377.006 68.32 387.566 C 71.086 392.08 78.199 399.931 89.659 411.12 C 96.668 419.065 102.616 424.681 107.504 427.967 C 119.717 436.203 132.056 445.5 144.301 452.223 C 160.866 461.332 179.273 467.338 194.201 471.409 C 230.483 481.278 266.724 481.933 302.923 473.374 C 314.778 470.582 327.491 466.012 339.595 461.675 C 344.171 460.032 348.585 458.041 352.838 455.701 C 367.969 447.371 382.288 437.82 395.797 427.046 C 405.562 419.247 412.664 412.706 417.104 407.423 C 428.491 393.884 439.052 382.435 448.879 365.572 C 455.259 354.622 461.872 339.414 465.694 329.275 C 492.804 257.318 482.416 176.642 436.15 114.513 C 432.573 109.709 429.318 105.996 426.386 103.376 C 414.11 87.481 398.901 75.938 382.944 63.943 C 376.205 58.868 369.154 54.464 361.792 50.731 C 353.941 45.885 348.907 43.046 346.692 42.214 C 335.508 38.018 323.778 32.886 313.155 29.844 C 271.57 17.916 230.207 17.984 189.069 30.047 C 170.538 35.491 148.793 43.352 133.444 53.585 C 115.787 65.346 104.717 73.125 100.235 76.921 C 93.007 83.035 82.681 93.892 69.256 109.49 C 66.011 113.25 63.609 118.163 61.176 121.626 C 51.245 135.717 43.082 150.733 36.686 166.675 C 32.053 178.202 29.558 191.102 26.687 203.659 C 21.301 227.223 20.276 250.949 23.614 274.835 C 24.036 277.846 25.44 282.307 25.455 286.3 Z" style=""/>
  <path fill="#83e385" d="M 361.792 50.731 C 369.154 54.464 376.205 58.868 382.944 63.943 C 398.901 75.938 414.11 87.481 426.386 103.376 C 425.543 105.747 425.372 107.182 426.994 109.319 C 437.601 123.311 448.052 138.722 454.385 155.194 C 460.765 171.744 465.881 186.08 470.28 205.562 C 472.225 214.214 473.41 226.391 473.837 242.094 C 470.634 242.156 467.561 242.879 464.618 244.262 C 464.357 244.382 464.06 244.394 463.791 244.293 C 463.011 244.023 462.273 244.106 461.576 244.543 C 461.353 244.685 461.085 244.751 460.812 244.73 C 460.021 244.668 459.761 244.413 460.032 243.966 C 460.19 243.683 459.983 243.335 459.659 243.339 C 459.581 243.34 459.505 243.363 459.439 243.404 C 458.41 244.132 457.843 245.302 457.739 246.914 C 457.042 257.261 456.662 264.426 456.6 268.409 C 456.6 268.669 456.47 268.804 456.21 268.814 L 455.789 268.83 C 455.643 268.84 455.571 268.778 455.571 268.643 L 455.305 261.795 C 455.357 259.434 455.217 257.079 454.884 254.729 C 454.614 252.774 453.839 251.739 452.56 251.625 C 452.716 213.034 442.639 180.324 424.841 147.067 C 425.341 137.012 425.673 127.002 425.84 117.04 C 425.954 109.636 422.257 105.034 414.749 103.235 C 414.292 102.705 413.304 102.383 411.785 102.268 C 409.373 102.102 404.979 102.045 398.605 102.097 C 392.63 96.762 387.015 90.491 381.087 85.937 C 320.19 39.156 244.303 27.707 172.846 57.11 C 164.782 60.433 156.374 65.268 148.169 69.527 C 141.327 73.083 135.446 76.676 130.527 80.305 C 117.768 89.727 107.509 98.701 99.751 107.229 C 86.976 121.283 72.641 139.159 64.904 157.269 C 62.065 163.904 60.63 167.257 60.599 167.33 C 39.073 214.734 39.478 272.589 58.524 320.555 C 61.519 328.136 64.42 336.31 68.055 343.064 C 76.083 358.007 86.425 371.016 99.08 382.091 L 116.099 398.236 C 115.631 397.882 115.163 397.659 114.695 397.565 C 114.019 397.43 113.79 397.69 114.008 398.345 C 115.662 403.337 126.019 410.606 130.278 414.162 C 128.957 416.003 128.817 417.563 129.856 418.842 C 130.189 419.268 130.418 419.741 130.543 420.261 L 131.136 422.913 C 131.25 423.422 131.255 423.927 131.151 424.426 C 131.016 425.154 131.136 425.825 131.51 426.438 C 131.77 426.854 131.822 427.296 131.666 427.764 C 131.375 428.617 131.401 429.423 131.744 430.182 C 131.973 430.671 131.858 431.066 131.401 431.367 L 130.09 432.225 C 118.111 425.133 106.849 416.528 96.304 406.41 C 95.146 405.292 93.213 405.847 92.824 407.409 C 92.819 407.429 92.814 407.45 92.81 407.47 C 92.456 409.082 91.406 410.299 89.659 411.12 C 78.199 399.931 71.086 392.08 68.32 387.566 C 61.831 377.006 54.032 365.822 48.744 355.839 C 43.908 346.698 39.619 337.308 35.875 327.668 C 32.365 318.668 30.275 308.201 27.499 298.389 C 27.259 297.547 27.109 296.268 27.046 294.552 C 27.561 293.273 28.122 292.197 27.888 290.762 C 26.297 280.279 27.592 269.797 26.984 259.814 C 26.682 254.833 26.62 250.138 26.797 245.729 C 27.686 222.955 31.086 198.808 38.62 177.438 C 45.25 158.626 54.484 142.013 64.935 125.105 C 74.201 110.083 87.226 97.823 99.502 85.328 C 102.715 82.068 107.582 77.482 111.622 75.002 C 121.012 69.262 130.714 61.837 139.184 57.001 C 152.131 49.607 164.969 43.352 179.647 39.047 C 186.823 36.941 194.403 34.227 201.173 32.667 C 239.203 23.88 277.029 25.014 314.653 36.068 C 327.163 39.749 339.034 43.384 350.857 49.046 C 352.324 49.753 353.509 49.623 354.414 48.656 C 354.747 48.313 355.116 48.261 355.521 48.5 C 357.539 49.665 359.629 50.408 361.792 50.731 Z" style=""/>
  <path fill="#3ba54e" d="M 398.605 102.097 L 387.171 102.237 C 386.678 102.247 386.2 102.075 385.829 101.754 C 377.468 94.438 370.792 88.729 359.639 81.429 C 348.174 73.926 333.028 67.452 322.156 63.147 C 286.841 49.14 247.298 46.191 210.08 54.927 C 179.772 62.055 148.934 75.236 125.364 95.92 C 116.364 103.828 105.304 112.017 98.878 120.784 C 88.115 135.446 77.851 147.598 69.069 165.552 C 64.998 173.866 62.424 182.695 59.616 191.648 C 48 228.648 47.662 265.773 58.602 303.022 C 62.741 317.102 65.907 326.623 68.102 331.583 C 71.367 338.946 76.416 347.868 83.248 358.35 C 83.549 358.829 86.321 362.5 91.562 369.363 C 94.515 373.242 97.021 377.485 99.08 382.091 C 86.425 371.016 76.083 358.007 68.055 343.064 C 64.42 336.31 61.519 328.136 58.524 320.555 C 39.478 272.589 39.073 214.734 60.599 167.33 C 60.63 167.257 62.065 163.904 64.904 157.269 C 72.641 139.159 86.976 121.283 99.751 107.229 C 107.509 98.701 117.768 89.727 130.527 80.305 C 135.446 76.676 141.327 73.083 148.169 69.527 C 156.374 65.268 164.782 60.433 172.846 57.11 C 244.303 27.707 320.19 39.156 381.087 85.937 C 387.015 90.491 392.63 96.762 398.605 102.097 Z" style=""/>
  <path fill="#0f3d33" d="M 398.605 102.097 C 404.979 102.045 409.373 102.102 411.785 102.268 C 413.304 102.383 414.292 102.705 414.749 103.235 L 412.986 126.337 C 412.895 127.47 413.18 128.604 413.798 129.566 L 424.841 147.067 C 442.639 180.324 452.716 213.034 452.56 251.625 C 451.926 276.863 446.742 301.207 437.008 324.657 C 433.655 332.737 428.803 341.145 424.42 349.256 C 420.822 355.891 417.094 361.678 413.236 366.618 C 403.736 378.8 393.363 391.139 381.259 400.825 C 369.388 410.325 357.721 418.951 344.025 426.688 C 339.735 429.121 334.682 430.556 329.971 432.678 C 280.898 454.906 229.563 455.498 179.444 435.423 C 172.441 432.615 165.265 430.229 158.839 426.766 C 144.54 419.102 131.146 410.065 118.657 399.655 C 117.835 398.969 116.982 398.496 116.099 398.236 L 99.08 382.091 C 97.021 377.485 94.515 373.242 91.562 369.363 C 86.321 362.5 83.549 358.829 83.248 358.35 C 76.416 347.868 71.367 338.946 68.102 331.583 C 65.907 326.623 62.741 317.102 58.602 303.022 C 47.662 265.773 48 228.648 59.616 191.648 C 62.424 182.695 64.998 173.866 69.069 165.552 C 77.851 147.598 88.115 135.446 98.878 120.784 C 105.304 112.017 116.364 103.828 125.364 95.92 C 148.934 75.236 179.772 62.055 210.08 54.927 C 247.298 46.191 286.841 49.14 322.156 63.147 C 333.028 67.452 348.174 73.926 359.639 81.429 C 370.792 88.729 377.468 94.438 385.829 101.754 C 386.2 102.075 386.678 102.247 387.171 102.237 L 398.605 102.097 Z M 73.53 240.378 C 78.054 240.617 85.645 240.737 96.304 240.737 C 106.178 240.737 109.594 253.45 100.11 257.022 C 98.768 257.531 96.455 257.781 93.169 257.771 C 87.012 257.75 80.669 257.812 74.138 257.958 L 64.67 257.615 C 64.108 257.604 63.838 257.875 63.859 258.426 C 64.717 284.507 71.112 308.326 82.359 331.802 C 84.813 336.928 90.122 345.539 98.285 357.633 C 102.902 364.756 108.596 372.041 115.365 379.486 C 115.802 379.975 116.254 379.986 116.722 379.518 L 163.768 332.8 C 164.173 332.394 164.241 331.942 163.971 331.443 C 160.009 324.195 156.93 318.111 154.736 313.192 C 134.661 268.237 147.966 213.736 177.557 176.845 C 181.909 171.417 187.868 166.924 193.249 161.309 C 200.924 153.322 211.312 146.147 220.25 141.109 C 258.67 119.396 303.531 107.494 347.66 104.889 C 353.478 104.546 360.528 103.282 367.049 103.298 C 368.681 103.298 368.806 102.861 367.423 101.988 L 361.511 98.244 C 359.535 96.299 357.346 94.589 354.944 93.112 C 341.545 84.845 325.634 76.109 310.301 72.288 C 300.973 69.948 290.725 66.891 282.457 65.471 C 275.376 64.244 268.19 63.376 260.9 62.866 C 260.158 62.812 259.605 63.538 259.855 64.239 L 260.963 67.359 L 260.557 70.978 C 260.682 69.792 260.734 69.189 260.713 69.168 C 259.715 67.775 259.221 67.936 259.231 69.652 C 259.252 72.251 259.236 74.659 259.184 76.874 C 259.132 78.818 259.361 79.188 259.871 77.981 C 259.902 84.813 262.554 102.861 252.243 103.142 C 246.69 103.287 243.872 100.246 243.789 94.017 C 243.674 86.061 243.44 78.798 243.087 72.225 L 243.477 64.442 C 243.549 62.923 242.837 62.258 241.34 62.445 C 214.916 65.69 187.446 71.804 164.439 84.579 C 149.479 92.878 134.193 103.189 121.792 115.075 C 114.929 121.647 108.481 128.614 102.45 135.977 C 98.082 141.327 94.37 147.426 90.532 153.4 C 78.23 172.535 69.979 193.302 65.777 215.701 C 64.894 220.433 64.181 228.508 63.64 239.926 C 63.609 240.467 63.864 240.768 64.405 240.831 C 67.618 241.236 70.66 241.085 73.53 240.378 Z M 176.933 319.697 C 177.921 319.385 178.794 318.834 179.554 318.044 C 190.597 306.594 201.865 295.368 213.356 284.366 C 214.074 283.677 214.479 282.725 214.479 281.73 C 214.458 248.495 214.463 215.046 214.494 181.384 C 214.494 172.899 226.786 168.578 229.407 178.14 C 230.02 180.365 230.228 182.84 230.031 185.565 L 229.812 266.646 C 229.809 266.898 230.079 267.06 230.299 266.937 C 230.327 266.922 230.352 266.903 230.374 266.88 L 248.359 249.41 C 261.701 236.213 274.996 222.981 288.245 209.711 C 293.579 204.361 297.853 204.065 302.408 210.445 C 303.334 212.472 303.432 214.505 302.704 216.544 C 302.247 217.823 301.077 219.341 299.195 221.098 C 294 225.934 289.149 231.409 284.173 235.948 C 274.565 244.715 267.358 251.786 262.554 257.162 C 253.6 267.239 245.52 272.964 236.114 283.15 C 235.792 283.493 235.864 283.69 236.332 283.742 L 320.144 293.866 C 325.083 294.458 327.355 297.235 326.96 302.195 L 326.835 303.802 C 326.59 306.961 323.776 309.288 320.627 308.934 L 224.743 298.233 C 222.636 297.997 220.541 298.745 219.065 300.261 L 186.027 334.017 C 214.479 356.385 255.191 358.709 288.557 348.274 C 337.739 332.878 370.87 294.583 385.33 245.947 C 389.667 231.393 392.35 211.162 394.065 195.985 C 396.728 172.348 398.423 146.09 399.15 117.212 C 398.215 116.733 397.149 116.479 395.953 116.447 C 368.25 115.792 341.171 117.711 314.715 122.203 C 294.791 125.583 275.36 130.783 256.423 137.802 C 246.44 141.514 237.248 146.028 228.845 151.341 C 220.058 156.905 211.078 163.378 201.906 170.762 C 199.681 172.561 197.664 174.557 195.854 176.752 C 184.046 191.055 173.158 204.985 166.544 222.518 C 158.371 244.2 157.419 272.542 162.582 294.864 C 164.465 303.027 168.598 311.867 174.983 321.382 C 175.316 321.881 175.67 321.902 176.044 321.444 C 176.397 321.028 176.694 320.446 176.933 319.697 Z M 138.061 398.205 C 140.308 400.243 144.29 403.134 150.01 406.878 C 167.215 418.14 184.841 426.844 204.48 431.165 C 217.365 434.003 229.609 436.983 242.806 437.513 C 243.206 437.531 243.539 437.211 243.539 436.811 C 243.466 426.1 243.492 415.441 243.617 404.834 C 243.7 398.262 246.991 395.397 253.491 396.239 C 257.63 396.78 259.725 399.38 259.777 404.039 C 259.902 414.958 259.923 425.887 259.84 436.827 C 259.839 437.27 260.208 437.624 260.651 437.607 C 275.61 436.92 289.321 433.504 303.765 429.963 C 309.079 428.653 314.273 426.932 319.348 424.8 C 333.246 418.982 348.065 411.51 359.702 401.87 C 361.002 400.789 363.165 399.302 366.191 397.409 C 372.57 393.416 378.092 387.8 383.474 382.606 C 387.951 378.301 391.897 372.826 396.202 367.959 C 400.31 363.321 403.383 359.577 405.421 356.728 C 412.648 346.651 417.562 338.592 420.162 332.55 C 430.566 308.435 437.991 285.193 439.005 258.691 C 439.026 258.15 438.771 257.885 438.241 257.895 L 411.239 258.192 C 403.783 255.124 401.963 250.502 405.78 244.325 C 408.026 240.706 411.583 240.924 415.779 240.441 L 438.303 240.815 C 438.823 240.825 439.072 240.571 439.052 240.051 C 437.96 214.921 431.752 193.442 421.831 170.684 C 419.585 164.226 416.257 157.622 411.848 150.873 C 411.484 150.333 411.286 150.39 411.255 151.045 C 410.101 172.904 407.948 194.659 404.797 216.31 C 402.036 235.262 396.499 253.434 390.368 269.984 C 381.976 292.54 368.998 308.684 352.027 326.732 C 350.135 328.749 348.081 330.58 345.866 332.223 C 335.789 339.71 325.198 347.681 314.403 352.938 C 302.408 358.771 290.662 362.905 277.045 364.933 C 242.556 370.08 205.151 367.647 176.215 344.031 C 175.8 343.688 175.399 343.703 175.014 344.078 L 128.967 389.454 C 128.489 389.922 128.421 390.442 128.765 391.014 C 130.73 394.414 133.829 396.811 138.061 398.205 Z" style=""/>
  <path fill="#b7d5ca" d="M 243.087 72.225 C 235.994 74.534 228.793 76.692 221.483 78.699 C 211.78 81.351 204.61 83.576 199.972 85.375 C 174.609 95.218 147.545 110.224 128.796 130.33 C 123.991 135.478 118.516 140.516 114.414 145.632 C 93.574 171.651 80.83 204.127 75.839 236.947 C 75.755 237.498 75.506 237.95 75.09 238.304 C 74.403 238.886 73.884 239.577 73.53 240.378 C 70.66 241.085 67.618 241.236 64.405 240.831 C 63.864 240.768 63.609 240.467 63.64 239.926 C 64.181 228.508 64.894 220.433 65.777 215.701 C 69.979 193.302 78.23 172.535 90.532 153.4 C 94.37 147.426 98.082 141.327 102.45 135.977 C 108.481 128.614 114.929 121.647 121.792 115.075 C 134.193 103.189 149.479 92.878 164.439 84.579 C 187.446 71.804 214.916 65.69 241.34 62.445 C 242.837 62.258 243.549 62.923 243.477 64.442 L 243.087 72.225 Z" style=""/>
  <path fill="#b7d5ca" d="M 361.511 98.244 C 357.955 99.253 355.261 99.247 353.431 98.228 C 331.031 85.625 310.27 75.626 284.22 73.146 C 277.45 72.501 270.577 72.059 263.599 71.82 C 262.819 71.79 262.234 71.096 262.335 70.322 C 262.439 69.459 261.982 68.471 260.963 67.359 L 259.855 64.239 C 259.605 63.538 260.158 62.812 260.9 62.866 C 268.19 63.376 275.376 64.244 282.457 65.471 C 290.725 66.891 300.973 69.948 310.301 72.288 C 325.634 76.109 341.545 84.845 354.944 93.112 C 357.346 94.589 359.535 96.299 361.511 98.244 Z" style=""/>
  <path fill="#3ba54e" d="M 260.557 70.978 L 259.871 77.981 C 259.361 79.188 259.132 78.818 259.184 76.874 C 259.236 74.659 259.252 72.251 259.231 69.652 C 259.221 67.936 259.715 67.775 260.713 69.168 C 260.734 69.189 260.682 69.792 260.557 70.978 Z" style=""/>
  <path fill="#3ba54e" d="M 414.749 103.235 C 422.257 105.034 425.954 109.636 425.84 117.04 C 425.673 127.002 425.341 137.012 424.841 147.067 L 413.798 129.566 C 413.18 128.604 412.895 127.47 412.986 126.337 L 414.749 103.235 Z" style=""/>
  <path fill="#3ba54e" d="M 426.386 103.376 C 429.318 105.996 432.573 109.709 436.15 114.513 C 482.416 176.642 492.804 257.318 465.694 329.275 C 461.872 339.414 455.259 354.622 448.879 365.572 C 439.052 382.435 428.491 393.884 417.104 407.423 C 412.664 412.706 405.562 419.247 395.797 427.046 C 382.288 437.82 367.969 447.371 352.838 455.701 C 348.585 458.041 344.171 460.032 339.595 461.675 C 327.491 466.012 314.778 470.582 302.923 473.374 C 266.724 481.933 230.483 481.278 194.201 471.409 C 179.273 467.338 160.866 461.332 144.301 452.223 C 132.056 445.5 119.717 436.203 107.504 427.967 C 102.616 424.681 96.668 419.065 89.659 411.12 C 91.406 410.299 92.456 409.082 92.81 407.47 C 93.151 405.898 95.067 405.285 96.258 406.366 C 96.273 406.381 96.289 406.395 96.304 406.41 C 106.849 416.528 118.111 425.133 130.09 432.225 C 147.686 444.299 166.56 453.512 186.713 459.866 C 196.806 463.048 207.959 464.748 218.784 466.605 C 240.185 470.286 261.607 470.374 283.05 466.87 C 298.41 464.353 308.18 462.528 312.36 461.395 C 322.468 458.68 334.448 453.819 348.299 446.81 C 356.005 442.91 363.788 437.716 371.463 433.005 C 386.048 424.067 398.027 413.164 410.085 401.605 C 415.513 396.385 420.703 390.426 425.652 383.729 C 432.859 373.98 440.534 364.075 446.523 353.562 C 452.482 343.079 455.68 333.424 459.595 322.895 C 469.266 296.855 474.013 269.922 473.837 242.094 C 473.41 226.391 472.225 214.214 470.28 205.562 C 465.881 186.08 460.765 171.744 454.385 155.194 C 448.052 138.722 437.601 123.311 426.994 109.319 C 425.372 107.182 425.543 105.747 426.386 103.376 Z" style=""/>
  <path fill="#3ba54e" d="M 399.15 117.212 C 398.423 146.09 396.728 172.348 394.065 195.985 C 392.35 211.162 389.667 231.393 385.33 245.947 C 370.87 294.583 337.739 332.878 288.557 348.274 C 255.191 358.709 214.479 356.385 186.027 334.017 C 188.575 333.819 190.161 333.855 190.785 334.126 C 227.972 349.901 264.498 349.215 300.365 332.067 C 316.899 324.143 327.912 313.208 341.046 299.45 C 350.81 289.217 359.39 273.619 364.693 263.012 C 380.729 230.894 387.514 194.612 389.698 159.063 C 390.415 147.52 391.679 135.883 392.053 124.34 L 392.069 121.798 C 394.097 119.666 396.457 118.137 399.15 117.212 Z" style=""/>
  <path fill="#83e385" d="M 392.069 121.798 L 392.053 124.34 C 389.266 125.255 387.54 126.087 386.874 126.836 C 379.574 135.119 369.217 142.669 360.528 152.402 C 356.088 157.363 351.939 161.652 348.081 165.271 C 336.491 176.112 325.9 187.421 314.076 198.449 C 310.051 202.203 306.162 206.202 302.408 210.445 C 297.853 204.065 293.579 204.361 288.245 209.711 C 274.996 222.981 261.701 236.213 248.359 249.41 C 247.849 249.493 247.449 249.488 247.158 249.394 C 246.776 249.272 246.518 248.912 246.518 248.505 C 246.487 231.711 246.409 215.056 246.284 198.543 C 246.253 195.392 246.409 192.257 245.052 189.449 C 242.265 183.709 237.258 182.414 230.031 185.565 C 230.228 182.84 230.02 180.365 229.407 178.14 C 226.786 168.578 214.494 172.899 214.494 181.384 C 214.463 215.046 214.458 248.495 214.479 281.73 C 214.479 282.725 214.074 283.677 213.356 284.366 C 201.865 295.368 190.597 306.594 179.554 318.044 C 178.794 318.834 177.921 319.385 176.933 319.697 C 172.17 308.508 169.243 300.693 168.151 296.252 C 159.619 261.577 165.515 228.367 185.263 199.182 C 191.627 189.745 196.946 182.617 204.808 175.504 C 210.72 170.169 218.269 165.193 225.226 160.326 C 237.518 151.747 253.117 144.306 265.939 140.001 C 279.249 135.54 295.82 131.323 315.651 127.351 C 337.312 123.014 362.785 121.163 392.069 121.798 Z M 190.27 224.686 C 191.021 225.567 192.431 225.376 192.922 224.327 L 194.201 221.566 C 194.446 221.035 194.38 220.412 194.029 219.944 L 192.594 218.025 C 192.058 217.307 191.035 217.173 190.332 217.729 L 188.039 219.538 C 187.346 220.098 187.247 221.118 187.821 221.8 L 190.27 224.686 Z" style=""/>
  <path fill="#66d76b" d="M 392.053 124.34 C 391.679 135.883 390.415 147.52 389.698 159.063 C 387.514 194.612 380.729 230.894 364.693 263.012 C 359.39 273.619 350.81 289.217 341.046 299.45 C 327.912 313.208 316.899 324.143 300.365 332.067 C 264.498 349.215 227.972 349.901 190.785 334.126 C 190.161 333.855 188.575 333.819 186.027 334.017 L 219.065 300.261 C 220.541 298.745 222.636 297.997 224.743 298.233 L 320.627 308.934 C 323.776 309.288 326.59 306.961 326.835 303.802 L 326.96 302.195 C 327.355 297.235 325.083 294.458 320.144 293.866 L 236.332 283.742 C 235.864 283.69 235.792 283.493 236.114 283.15 C 245.52 272.964 253.6 267.239 262.554 257.162 C 267.358 251.786 274.565 244.715 284.173 235.948 C 289.149 231.409 294 225.934 299.195 221.098 C 301.077 219.341 302.247 217.823 302.704 216.544 C 303.432 214.505 303.334 212.472 302.408 210.445 C 306.162 206.202 310.051 202.203 314.076 198.449 C 325.9 187.421 336.491 176.112 348.081 165.271 C 351.939 161.652 356.088 157.363 360.528 152.402 C 369.217 142.669 379.574 135.119 386.874 126.836 C 387.54 126.087 389.266 125.255 392.053 124.34 Z M 339.533 199.837 C 336.943 202.583 331.499 202.302 328.286 201.616 C 328.006 201.558 327.733 201.741 327.678 202.021 C 327.647 202.167 327.621 202.307 327.6 202.442 C 327.537 202.765 327.641 203.014 327.912 203.191 C 332.56 206.186 330.985 210.117 329.347 214.188 C 329.16 214.667 329.305 214.999 329.784 215.186 C 330.428 215.436 331 215.332 331.499 214.875 C 336.928 209.883 339.626 214.609 344.883 214.422 C 345.435 214.407 345.764 213.8 345.475 213.33 C 345.466 213.314 345.455 213.298 345.445 213.283 C 342.855 209.581 341.716 205.448 342.028 200.883 C 342.205 198.252 341.373 197.903 339.533 199.837 Z M 338.659 260.797 C 332.545 258.285 331.016 258.348 328.972 251.578 C 328.931 251.422 328.863 251.323 328.77 251.282 C 328.645 251.23 328.489 251.214 328.302 251.235 C 327.959 251.276 327.782 251.469 327.771 251.812 C 327.595 256.762 325.073 259.564 320.206 260.22 C 319.665 260.282 319.535 260.552 319.816 261.031 C 319.93 261.228 320.18 261.358 320.565 261.421 C 325.525 262.325 326.383 264.712 328.146 268.877 C 328.38 269.443 329.139 269.542 329.512 269.056 C 329.571 268.979 329.616 268.892 329.643 268.799 C 330.995 264.421 333.948 262.065 338.503 261.733 C 338.875 261.722 339.096 261.312 338.9 260.995 C 338.844 260.904 338.759 260.834 338.659 260.797 Z" style=""/>
  <path fill="#b7d5ca" d="M 421.831 170.684 C 423.37 194.955 421.352 218.207 415.779 240.441 C 411.583 240.924 408.026 240.706 405.78 244.325 C 401.963 250.502 403.783 255.124 411.239 258.192 C 406.05 276.411 398.053 293.46 387.249 309.34 C 380.094 319.853 374.063 327.205 369.154 331.396 C 362.151 337.386 355.1 344.67 348.439 349.6 C 335.326 359.281 320.69 366.716 304.529 371.905 C 268.445 383.49 233.821 380.797 200.658 363.825 C 195.657 361.278 191.408 357.882 187.914 353.64 C 187.519 353.161 187.124 353.156 186.729 353.624 C 181.347 360.066 173.236 366.196 168.744 370.595 C 164.459 374.786 160.664 378.727 157.357 382.419 C 151.284 389.199 144.852 394.461 138.061 398.205 C 133.829 396.811 130.73 394.414 128.765 391.014 C 128.421 390.442 128.489 389.922 128.967 389.454 L 175.014 344.078 C 175.399 343.703 175.8 343.688 176.215 344.031 C 205.151 367.647 242.556 370.08 277.045 364.933 C 290.662 362.905 302.408 358.771 314.403 352.938 C 325.198 347.681 335.789 339.71 345.866 332.223 C 348.081 330.58 350.135 328.749 352.027 326.732 C 368.998 308.684 381.976 292.54 390.368 269.984 C 396.499 253.434 402.036 235.262 404.797 216.31 C 407.948 194.659 410.101 172.904 411.255 151.045 C 411.286 150.39 411.484 150.333 411.848 150.873 C 416.257 157.622 419.585 164.226 421.831 170.684 Z" style=""/>
  <path fill="#66d76b" d="M 248.359 249.41 L 230.374 266.88 C 230.197 267.06 229.892 266.982 229.824 266.739 C 229.816 266.709 229.812 266.678 229.812 266.646 L 230.031 185.565 C 237.258 182.414 242.265 183.709 245.052 189.449 C 246.409 192.257 246.253 195.392 246.284 198.543 C 246.409 215.056 246.487 231.711 246.518 248.505 C 246.518 248.912 246.776 249.272 247.158 249.394 C 247.449 249.488 247.849 249.493 248.359 249.41 Z" style=""/>
  <path fill="#3ba54e" d="M 328.286 201.616 C 331.499 202.302 336.943 202.583 339.533 199.837 C 341.373 197.903 342.205 198.252 342.028 200.883 C 341.716 205.448 342.855 209.581 345.445 213.283 C 345.769 213.731 345.488 214.361 344.938 214.419 C 344.92 214.42 344.902 214.422 344.883 214.422 C 339.626 214.609 336.928 209.883 331.499 214.875 C 331 215.332 330.428 215.436 329.784 215.186 C 329.305 214.999 329.16 214.667 329.347 214.188 C 330.985 210.117 332.56 206.186 327.912 203.191 C 327.641 203.014 327.537 202.765 327.6 202.442 C 327.621 202.307 327.647 202.167 327.678 202.021 C 327.733 201.741 328.006 201.558 328.286 201.616 Z" style=""/>
  <path fill="#b7d5ca" d="M 190.27 224.686 L 187.821 221.8 C 187.247 221.118 187.346 220.098 188.039 219.538 L 190.332 217.729 C 191.035 217.173 192.058 217.307 192.594 218.025 L 194.029 219.944 C 194.38 220.412 194.446 221.035 194.201 221.566 L 192.922 224.327 C 192.431 225.376 191.021 225.567 190.27 224.686 Z" style=""/>
  <path fill="#66d76b" d="M 473.837 242.094 C 474.013 269.922 469.266 296.855 459.595 322.895 C 455.68 333.424 452.482 343.079 446.523 353.562 C 440.534 364.075 432.859 373.98 425.652 383.729 C 420.703 390.426 415.513 396.385 410.085 401.605 C 398.027 413.164 386.048 424.067 371.463 433.005 C 363.788 437.716 356.005 442.91 348.299 446.81 C 334.448 453.819 322.468 458.68 312.36 461.395 C 308.18 462.528 298.41 464.353 283.05 466.87 C 261.607 470.374 240.185 470.286 218.784 466.605 C 207.959 464.748 196.806 463.048 186.713 459.866 C 166.56 453.512 147.686 444.299 130.09 432.225 L 131.401 431.367 C 131.858 431.066 131.973 430.671 131.744 430.182 C 131.401 429.423 131.375 428.617 131.666 427.764 C 131.822 427.296 131.77 426.854 131.51 426.438 C 131.136 425.825 131.016 425.154 131.151 424.426 C 131.255 423.927 131.25 423.422 131.136 422.913 L 130.543 420.261 C 130.418 419.741 130.189 419.268 129.856 418.842 C 128.817 417.563 128.957 416.003 130.278 414.162 C 141.197 422.117 148.59 426.911 152.459 428.544 C 156.972 430.437 161.412 432.47 165.78 434.643 C 197.518 450.418 230.842 457.162 265.751 454.874 C 274.715 454.292 284.132 452.925 294 450.772 C 305.086 448.339 314.216 445.546 321.392 442.396 C 337.853 435.168 349.136 429.781 355.24 426.235 C 362.936 421.753 372.784 414.583 384.784 404.725 C 385.782 403.893 386.942 402.733 388.263 401.246 C 390.992 398.142 395.282 394.835 397.232 392.839 C 429.911 359.505 456.429 309.683 455.305 261.795 L 455.571 268.643 C 455.571 268.778 455.643 268.84 455.789 268.83 L 456.21 268.814 C 456.47 268.804 456.6 268.669 456.6 268.409 C 456.662 264.426 457.042 257.261 457.739 246.914 C 457.843 245.302 458.41 244.132 459.439 243.404 C 459.713 243.231 460.072 243.419 460.085 243.743 C 460.088 243.821 460.07 243.898 460.032 243.966 C 459.761 244.413 460.021 244.668 460.812 244.73 C 461.085 244.751 461.353 244.685 461.576 244.543 C 462.273 244.106 463.011 244.023 463.791 244.293 C 464.06 244.394 464.357 244.382 464.618 244.262 C 467.561 242.879 470.634 242.156 473.837 242.094 Z" style=""/>
  <path fill="#b7d5ca" d="M 328.972 251.578 C 331.016 258.348 332.545 258.285 338.659 260.797 C 339.008 260.928 339.083 261.387 338.796 261.623 C 338.713 261.691 338.61 261.729 338.503 261.733 C 333.948 262.065 330.995 264.421 329.643 268.799 C 329.469 269.386 328.724 269.564 328.303 269.119 C 328.236 269.049 328.183 268.967 328.146 268.877 C 326.383 264.712 325.525 262.325 320.565 261.421 C 320.18 261.358 319.93 261.228 319.816 261.031 C 319.535 260.552 319.665 260.282 320.206 260.22 C 325.073 259.564 327.595 256.762 327.771 251.812 C 327.782 251.469 327.959 251.276 328.302 251.235 C 328.489 251.214 328.645 251.23 328.77 251.282 C 328.863 251.323 328.931 251.422 328.972 251.578 Z" style=""/>
  <path fill="#b7d5ca" d="M 74.138 257.958 C 74.793 260.464 75.277 264.967 75.589 271.466 C 76.4 288.604 79.795 306.371 85.775 324.767 C 88.957 334.562 94.182 346.589 98.285 357.633 C 90.122 345.539 84.813 336.928 82.359 331.802 C 71.112 308.326 64.717 284.507 63.859 258.426 C 63.838 257.875 64.108 257.604 64.67 257.615 L 74.138 257.958 Z" style=""/>
  <path fill="#3ba54e" d="M 25.455 286.3 C 27.005 288.536 27.462 290.782 26.828 293.039 C 25.809 290.918 25.351 288.671 25.455 286.3 Z" style=""/>
</svg>