<?xml version="1.0" encoding="UTF-8" standalone="no"?>
<svg
   version="1.1"
   width="512"
   height="512"
   id="svg1"
   sodipodi:docname="projects.svg"
   inkscape:version="1.3.1 (91b66b0783, 2023-11-16)"
   xmlns:inkscape="http://www.inkscape.org/namespaces/inkscape"
   xmlns:sodipodi="http://sodipodi.sourceforge.net/DTD/sodipodi-0.dtd"
   xmlns="http://www.w3.org/2000/svg"
   xmlns:svg="http://www.w3.org/2000/svg">
  <defs
     id="defs1" />
  <sodipodi:namedview
     id="namedview1"
     borderopacity="0.25"
     inkscape:showpageshadow="2"
     inkscape:pageopacity="0.0"
     inkscape:pagecheckerboard="0"
     showgrid="false"
     inkscape:zoom="1.6862839"
     inkscape:cx="239.87656"
     inkscape:cy="217.34181"
     inkscape:window-width="2560"
     inkscape:window-height="1417"
     inkscape:window-x="1072"
     inkscape:window-y="358"
     inkscape:window-maximized="1"
     inkscape:current-layer="svg1" />
  <path
     d="m 89.474365,63.709473 c 1.243286,-0.0067 2.486572,-0.01344 3.767533,-0.02036 3.39732,-0.0157 6.794392,-0.02235 10.191742,-0.02363 2.13039,-0.0014 4.26076,-0.0057 6.39115,-0.011 7.45547,-0.01849 14.91087,-0.02667 22.36637,-0.0251 6.91013,0.0012 13.81995,-0.01983 20.73,-0.05149 5.96129,-0.02632 11.92248,-0.03687 17.88383,-0.0356 3.54739,5.06e-4 7.09449,-0.0049 10.64182,-0.02636 27.78866,-0.156026 46.78417,2.98928 67.12167,23.029614 4.20354,4.197499 8.36526,8.437483 12.50427,12.698578 15.09455,15.511875 30.95518,27.551015 53.471,28.091555 3.96974,0.0467 7.9384,0.0566 11.90839,0.0444 3.26805,-0.009 6.53555,10e-4 9.80358,0.0166 9.283,0.0399 18.56595,0.0413 27.84902,0.0391 5.70035,-5e-5 11.4004,0.0192 17.10067,0.0493 3.20339,0.0108 6.40618,-10e-4 9.60955,-0.0138 12.42348,0.022 23.3316,0.5304 33.39988,8.69667 7.29213,7.48361 10.02661,16.39514 9.96534,26.64038 -0.0182,1.03262 -0.0364,2.06524 -0.0552,3.12915 -0.0412,3.32062 -0.0825,6.64125 -0.125,10.0625 -10.56,0 -21.12,0 -32,0 0,-5.28 0,-10.56 0,-16 -1.71863,0.0133 -1.71863,0.0133 -3.47198,0.0269 -10.88367,0.0817 -21.76726,0.14132 -32.65116,0.18033 -5.59336,0.0207 -11.18647,0.0488 -16.77969,0.0945 -5.41414,0.044 -10.82803,0.0675 -16.24233,0.0778 -2.04892,0.007 -4.09782,0.0215 -6.14663,0.0434 -32.42553,0.33177 -57.82789,-8.42836 -81.52575,-31.16688 -5.04084,-4.98308 -9.97811,-10.07092 -14.90292,-15.16839 -1.8616,-1.92228 -3.73569,-3.83167 -5.61157,-5.73999 -0.55227,-0.57919 -1.10454,-1.15838 -1.67354,-1.75512 -6.2863,-6.36525 -13.20267,-9.687129 -22.18297,-9.750754 -1.04885,-0.0098 -2.09771,-0.01958 -3.17834,-0.02966 -1.14511,-0.0058 -2.29022,-0.01151 -3.47003,-0.01744 -1.21003,-0.0099 -2.42006,-0.0198 -3.66675,-0.03 -3.3137,-0.02617 -6.62738,-0.04804 -9.94112,-0.068 -3.4647,-0.02189 -6.92936,-0.04926 -10.39403,-0.07606 -6.55888,-0.04989 -13.11778,-0.09484 -19.67671,-0.138023 -7.46793,-0.04941 -14.93583,-0.104312 -22.40372,-0.159679 C 112.72055,96.20916 97.360294,96.102308 82,96 c 0.05886,39.13529 0.133396,78.27053 0.228986,117.40575 0.01127,4.61882 0.02241,9.23764 0.03346,13.85646 0.0022,0.91953 0.0044,1.83907 0.0067,2.78647 0.03539,14.89481 0.06024,29.78963 0.08122,44.68447 0.02175,15.28009 0.0548,30.56012 0.09835,45.84017 0.02653,9.43087 0.04421,18.86167 0.05064,28.29258 0.0053,6.4645 0.02146,12.92893 0.04632,19.39339 0.01403,3.73132 0.02318,7.4625 0.01934,11.19385 -0.004,4.04432 0.01498,8.0882 0.03627,12.13246 -0.0048,1.18094 -0.0097,2.36187 -0.01469,3.57859 0.04931,5.65654 0.09252,10.01399 3.413417,14.83581 4.46176,4.12713 7.827947,5.3158 13.941407,5.21484 4.53749,-0.47355 7.33963,-2.43759 10.37109,-5.71484 2.85138,-4.22427 2.83103,-7.89667 2.81881,-12.81006 0.002,-0.75026 0.004,-1.50052 0.006,-2.27351 0.006,-2.52164 0.005,-5.04322 0.004,-7.56487 0.003,-1.80523 0.007,-3.61046 0.0105,-5.41569 0.008,-3.8927 0.0131,-7.78539 0.0163,-11.67809 0.006,-6.16139 0.0225,-12.32273 0.0414,-18.4841 0.006,-2.10985 0.0126,-4.21969 0.019,-6.32954 0.003,-1.05678 0.006,-2.11356 0.01,-3.20236 0.0421,-14.34539 0.075,-28.69076 0.0873,-43.03621 0.008,-9.67391 0.0309,-19.34768 0.0694,-29.02151 0.0197,-5.11722 0.0322,-10.23422 0.0272,-15.35148 -0.005,-4.81983 0.009,-9.63926 0.037,-14.45901 0.007,-1.76273 0.007,-3.5255 -2.1e-4,-5.28823 -0.0447,-12.08285 0.7852,-23.03119 8.70871,-32.80018 8.97004,-8.74053 18.98152,-10.08524 30.91302,-10.05259 1.21512,-0.005 2.43024,-0.009 3.68218,-0.0137 3.36069,-0.0104 6.72116,-0.012 10.08185,-0.01 3.62931,4.1e-4 7.25859,-0.0106 10.88789,-0.0201 7.10614,-0.0166 14.21224,-0.0221 21.3184,-0.0232 5.77825,-9.5e-4 11.5565,-0.005 17.33474,-0.0114 16.39351,-0.0176 32.787,-0.0268 49.18052,-0.0253 1.32491,1.2e-4 1.32491,1.2e-4 2.67659,2.4e-4 1.32654,1.3e-4 1.32654,1.3e-4 2.67988,2.5e-4 14.32846,8.1e-4 28.65681,-0.0183 42.98524,-0.0465 14.72321,-0.0288 29.44638,-0.0425 44.16962,-0.0408 8.26159,6.6e-4 16.52307,-0.005 24.78464,-0.0264 7.03476,-0.0182 14.06936,-0.0225 21.10414,-0.009 3.58624,0.007 7.17218,0.007 10.75839,-0.0107 3.89548,-0.0187 7.79051,-0.006 11.686,0.009 1.12269,-0.0103 2.24537,-0.0206 3.40208,-0.0312 9.75893,0.085 18.70871,2.45393 26.40169,8.69362 7.0569,7.2422 10.02563,16.11346 10.05259,26.09593 0.005,0.69706 0.009,1.39413 0.0137,2.11231 0.0126,2.31795 0.011,4.63565 0.009,6.95362 0.006,1.66964 0.0128,3.33927 0.0204,5.0089 0.0176,4.52532 0.0224,9.05057 0.0236,13.57593 0.001,2.83393 0.006,5.66784 0.011,8.50177 0.0185,9.90637 0.0267,19.81268 0.0251,29.71907 -0.001,9.20042 0.0199,18.40061 0.0515,27.60098 0.0263,7.92305 0.0369,15.84603 0.0356,23.76913 -5e-4,4.72107 0.005,9.44194 0.0264,14.16297 0.0195,4.4497 0.0194,8.89899 0.005,13.3487 -0.002,1.62036 0.002,3.24075 0.0147,4.86107 0.14918,21.17288 -5.32673,39.50357 -20.37093,55.05134 -11.55996,10.79249 -26.94297,17.18104 -42.78828,17.20174 -1.10879,0.004 -2.21757,0.008 -3.35995,0.0116 -1.20777,-8.7e-4 -2.41554,-0.002 -3.6599,-0.003 -1.29115,0.003 -2.5823,0.006 -3.91257,0.009 -3.57758,0.008 -7.15514,0.01 -10.73272,0.0106 -3.86111,0.002 -7.72221,0.009 -11.58331,0.0161 -8.44026,0.0136 -16.88052,0.0196 -25.32079,0.024 -5.27299,0.003 -10.54599,0.007 -15.81899,0.0115 -14.60745,0.0122 -29.21489,0.0225 -43.82234,0.0259 -0.93451,2.2e-4 -1.86901,4.4e-4 -2.83183,6.6e-4 -1.40506,3.3e-4 -1.40506,3.3e-4 -2.8385,6.6e-4 -1.89803,4.5e-4 -3.79607,8.9e-4 -5.6941,10e-4 -0.94148,2.3e-4 -1.88297,4.5e-4 -2.85298,6.8e-4 -15.2493,0.004 -30.49856,0.0214 -45.74784,0.0447 -15.66675,0.0237 -31.33346,0.0362 -47.00022,0.0374 -8.79203,9.1e-4 -17.584,0.007 -26.37601,0.0248 -7.48781,0.0154 -14.97554,0.0205 -22.46337,0.0123 -3.81719,-0.004 -7.63422,-0.003 -11.45139,0.011 -4.14694,0.0152 -8.29353,0.007 -12.44049,-0.004 -1.19438,0.008 -2.38877,0.0161 -3.61934,0.0244 -15.569335,-0.0913 -27.184869,-4.3684 -38.524917,-15.00519 -8.747107,-9.10474 -13.403401,-20.39626 -13.42719,-33.01375 -0.0045,-1.10243 -0.0089,-2.20487 -0.01351,-3.34071 1.85e-4,-1.20066 3.69e-4,-2.40133 5.59e-4,-3.63838 -0.0037,-1.28369 -0.0074,-2.56737 -0.01114,-3.88996 -0.01,-3.5567 -0.01373,-7.11339 -0.01639,-10.67011 -0.0039,-3.83859 -0.01349,-7.67717 -0.02221,-11.51576 -0.01973,-9.2657 -0.02983,-18.5314 -0.03873,-27.79712 -0.0044,-4.3664 -0.0098,-8.7328 -0.01499,-13.0992 -0.01701,-14.51909 -0.0315,-29.03818 -0.03875,-43.55728 -0.0019,-3.76512 -0.0038,-7.53024 -0.0058,-11.29536 -4.84e-4,-0.93576 -9.67e-4,-1.87153 -0.0015,-2.83565 -0.0083,-15.15946 -0.03364,-30.31885 -0.06611,-45.47828 -0.03309,-15.57294 -0.05108,-31.14585 -0.05428,-46.71883 -0.0022,-8.74004 -0.01089,-17.47997 -0.03646,-26.21998 -0.02173,-7.44283 -0.02975,-14.88553 -0.02003,-22.3284 0.0045,-3.79484 0.0027,-7.58938 -0.01676,-11.38418 -0.02094,-4.12112 -0.01063,-8.24158 0.0025,-12.36273 -0.01097,-1.18951 -0.02194,-2.37903 -0.03324,-3.60459 0.07659,-9.95632 2.312226,-18.989351 8.688956,-26.851294 9.091278,-8.858665 19.226145,-10.085079 31.306396,-10.075683 z"
     id="path1" />
</svg>
