<?xml version="1.0" encoding="UTF-8"?>
<svg version="1.1" xmlns="http://www.w3.org/2000/svg" width="1200" height="1200">
<path d="M0 0 C1.25454292 -0.00668677 1.25454292 -0.00668677 2.53443015 -0.01350862 C3.44821916 -0.01332426 4.36200818 -0.01313989 5.30348778 -0.01294994 C6.27834141 -0.01662663 7.25319504 -0.02030332 8.2575897 -0.02409142 C11.53366706 -0.03512953 14.80971271 -0.03897244 18.08580589 -0.04278088 C20.43154565 -0.04904577 22.77728441 -0.05569259 25.12302208 -0.0626936 C32.83896251 -0.08374527 40.55490315 -0.09410168 48.27086449 -0.10406017 C50.93017016 -0.10810827 53.58947574 -0.11222521 56.2487812 -0.11641026 C67.31841832 -0.13342732 78.38805445 -0.14791623 89.45770264 -0.155159 C92.32966806 -0.15706869 95.20163347 -0.15898904 98.07359886 -0.16094494 C98.78735343 -0.16142868 99.50110799 -0.16191242 100.23649149 -0.16241082 C111.77010995 -0.17069128 123.30362403 -0.1959923 134.83719702 -0.22852562 C146.70028281 -0.26171295 158.56331581 -0.27961857 170.42644823 -0.28280324 C177.07808935 -0.28495845 183.72959872 -0.29401108 190.38120461 -0.31926441 C196.65047921 -0.34267983 202.91948224 -0.3467244 209.18878937 -0.33650303 C211.47752286 -0.33601071 213.76627033 -0.34224029 216.05496216 -0.35605907 C241.4238142 -0.50053433 263.45200071 5.08967884 285.79430199 17.13422108 C286.87969261 17.71301014 287.96508324 18.2917992 289.08336449 18.88812733 C301.66657178 25.89505542 311.6040837 35.64716464 321.68694115 45.75270557 C322.95322151 47.01452458 324.21992898 48.27591508 325.48702216 49.53691787 C328.94201553 52.97782992 332.39082753 56.42487805 335.83856535 59.87305796 C339.56779643 63.60063218 343.30273106 67.32248467 347.0368557 71.04515553 C355.18645975 79.17198305 363.32866162 87.30619965 371.46941662 95.44189 C376.55610241 100.52531202 381.64441761 105.60710089 386.7330761 110.68854809 C400.83447953 124.77039987 414.93431249 138.85381866 429.02739906 152.94399452 C429.92784084 153.84424873 430.82828262 154.74450294 431.75601052 155.67203758 C433.58120139 157.49686222 435.40639099 159.32168812 437.23157933 161.14651529 C438.13754148 162.05229462 439.04350363 162.95807396 439.97691917 163.89130116 C440.8839906 164.79819204 441.79106203 165.70508292 442.72562048 166.63945534 C457.43493637 181.34522693 472.15596602 196.03921167 486.88217786 210.72806195 C502.01719858 225.82499181 517.14283337 240.93127132 532.25897193 256.04710788 C540.7401111 264.52766287 549.22514823 273.00423255 557.72045708 281.47059536 C564.95058959 288.67620441 572.17203382 295.89038248 579.38239363 303.11577944 C583.05899886 306.79954781 586.73948156 310.47920326 590.43102837 314.14800358 C593.81453356 317.51085969 597.18614864 320.88519029 600.54892299 324.26877304 C601.76306112 325.48639449 602.98138048 326.69986507 604.20440987 327.90855549 C616.93221435 340.49677894 624.99321468 352.75573782 625.16930199 371.13422108 C625.01501009 388.92001592 617.92949493 400.78501319 605.38335228 413.17335987 C604.32416856 414.23759847 603.26607756 415.30292551 602.20897698 416.36923331 C599.32275653 419.27426871 596.42130883 422.16365081 593.51695037 425.05053699 C590.37897205 428.17508678 587.25549365 431.31407639 584.13010216 434.45120716 C578.01390668 440.58574237 571.88439585 446.70680231 565.75004449 452.8231766 C560.76330876 457.79586407 555.78168594 462.77362115 550.80364799 467.75501537 C550.09408032 468.46506049 549.38451265 469.1751056 548.65344293 469.90666723 C547.211826 471.34931053 545.77022357 472.79196832 544.32863548 474.23464044 C531.59257085 486.97926465 518.84394305 499.71124868 506.08873558 512.43671131 C493.72192354 524.77468478 481.36604629 537.12348211 469.02135277 549.48358631 C455.56627679 562.95543621 442.10484542 576.42087808 428.6326344 589.87559432 C427.1951578 591.3112266 425.757686 592.74686368 424.32021904 594.18250561 C423.61301975 594.88879281 422.90582046 595.59508001 422.17719088 596.32276985 C417.2024601 601.2919029 412.23218726 606.26546813 407.26356316 611.24070644 C401.2057882 617.30622542 395.14079468 623.36441677 389.06660023 629.41349433 C385.96974386 632.49788101 382.87610591 635.58531654 379.7910881 638.68154812 C376.96329859 641.51942173 374.12634057 644.34778958 371.28199187 647.16906317 C370.25834832 648.18757267 369.23800184 649.20940976 368.22145113 650.23499856 C356.55705483 661.99438562 344.49231707 669.17349437 327.66930199 669.38422108 C304.62236356 669.37017321 291.33200052 654.82046413 276.11803246 639.61185169 C274.8627905 638.36063362 273.60734094 637.10962378 272.35170364 635.85880244 C268.92528858 632.44425411 265.50194845 629.02663786 262.07916737 625.60844731 C258.37803849 621.91331188 254.67411062 618.22098367 250.97063255 614.52820301 C242.0427031 605.62470326 233.11963575 596.71633871 224.19745159 587.80708212 C221.6752366 585.28858444 219.15289403 582.7702146 216.63050652 580.25188971 C200.94470397 564.5913172 185.26049701 548.92914861 169.58107567 533.262187 C165.95620713 529.64024779 162.3313224 526.01832479 158.70641136 522.39642811 C157.80554259 521.49630539 156.90467382 520.59618267 155.97650599 519.6687835 C141.37779391 505.08272939 126.76882318 490.50699479 112.15563083 475.93544941 C97.13255838 460.95483998 82.11896834 445.9647793 67.11450195 430.96553385 C58.69779712 422.55223695 50.27700217 414.14312549 41.84551048 405.74464512 C34.66711812 398.59431364 27.49735765 391.43546522 20.33856726 384.26550643 C16.68996127 380.61173048 13.03750918 376.96204112 9.37389946 373.32330418 C6.01235924 369.98439522 2.66283334 366.63388328 -0.67797065 363.2742302 C-1.88075329 362.06866706 -3.08767485 360.86721409 -4.29938722 359.67062657 C-19.34124216 344.80493503 -29.37739844 327.55371711 -36.95569801 307.88422108 C-37.22535378 307.20778553 -37.49500954 306.53134998 -37.77283669 305.83441639 C-43.91494274 289.14000178 -44.79387727 271.99860706 -44.72327614 254.40594959 C-44.72871111 252.09899424 -44.7358414 249.79204237 -44.74451637 247.48509693 C-44.76258194 241.28303847 -44.75575407 235.08124938 -44.74300003 228.87918687 C-44.73279325 222.35904318 -44.74228606 215.83892083 -44.74854469 209.31877613 C-44.75705288 197.68424975 -44.74392498 186.04983572 -44.72350734 174.41532879 C-44.70561177 163.89228577 -44.70877183 153.36941919 -44.72718239 142.84637928 C-44.74864021 130.57613494 -44.75653128 118.30600278 -44.74473333 106.03574222 C-44.73851897 99.55833321 -44.7376068 93.08104544 -44.75087929 86.60364437 C-44.76247995 80.5188051 -44.75433496 74.43429762 -44.73130226 68.34949398 C-44.72603934 66.12477639 -44.72748721 63.90003059 -44.73635292 61.67532444 C-44.80262907 43.34747564 -42.8026117 27.97560494 -29.95569801 13.79047108 C-22.00390133 6.2646635 -11.20623156 0.02780584 0 0 Z M74.04039574 127.20453358 C60.76857507 143.21595026 55.44777288 162.53570415 56.79430199 183.13422108 C59.40004909 202.74913628 68.98879152 220.45954755 84.23570824 233.16937733 C100.93101064 245.36257571 120.25128746 250.83612154 140.79430199 248.57172108 C159.71753338 245.33513646 177.94505415 235.4177787 189.37633324 219.73578358 C200.95792299 202.83070153 206.06197096 183.79895119 203.29039574 163.43109608 C199.56523778 144.10284795 189.61608127 126.9636476 173.54430199 115.38422108 C141.70622638 93.96029531 99.63222731 97.89141746 74.04039574 127.20453358 Z " fill="#000000" transform="translate(327.20569801330566,249.86577892303467)"/>
</svg>
