<?xml version="1.0" standalone="no"?>
<!DOCTYPE svg PUBLIC "-//W3C//DTD SVG 20010904//EN"
 "http://www.w3.org/TR/2001/REC-SVG-20010904/DTD/svg10.dtd">
<svg version="1.0" xmlns="http://www.w3.org/2000/svg"
 width="1024.000000pt" height="1024.000000pt" viewBox="0 0 1024.000000 1024.000000"
 preserveAspectRatio="xMidYMid meet">
<g transform="translate(0.000000,1024.000000) scale(0.100000,-0.100000)"
fill="#000000" stroke="none">
<path d="M4593 8600 c-286 -30 -594 -121 -832 -246 -124 -65 -199 -115 -301
-199 -334 -278 -537 -632 -600 -1044 -14 -95 -14 -361 0 -477 22 -178 90 -415
181 -629 28 -66 56 -132 62 -146 10 -24 6 -32 -31 -75 -93 -105 -132 -210
-132 -354 0 -150 51 -271 160 -381 69 -68 164 -125 230 -135 l36 -6 38 -120
c40 -125 130 -320 193 -417 20 -31 72 -102 115 -158 l78 -102 0 -368 0 -368
135 -135 135 -135 0 372 0 372 93 -66 c102 -73 269 -156 392 -196 226 -74 494
-76 720 -6 135 41 351 153 445 230 19 16 38 29 42 29 5 0 8 -165 8 -366 0
-243 3 -365 10 -362 6 2 67 59 135 128 l125 124 0 376 0 375 56 65 c133 155
255 375 328 590 l46 135 47 16 c133 45 247 137 311 250 38 67 72 192 72 263
-1 126 -51 259 -133 351 l-44 49 53 128 c163 393 233 719 221 1023 -13 316
-91 540 -241 691 -93 93 -220 154 -323 154 -17 0 -34 4 -37 9 -3 5 21 80 55
167 68 179 179 490 179 503 0 5 -44 -14 -97 -41 -154 -77 -225 -92 -433 -92
-196 -1 -194 -1 -470 90 -323 107 -473 134 -750 139 -107 2 -232 0 -277 -5z
m1320 -1485 c76 -179 176 -370 273 -518 l66 -100 -5 -611 c-3 -389 -8 -638
-16 -686 -6 -41 -16 -104 -22 -140 -37 -222 -173 -506 -347 -725 -76 -96 -103
-124 -206 -216 -193 -172 -375 -265 -589 -299 -108 -18 -310 -8 -407 20 -88
25 -240 95 -319 147 -273 179 -528 495 -640 793 -48 127 -62 199 -103 530 -30
245 -31 274 -35 714 -3 252 -2 473 1 490 4 17 26 52 51 78 l45 47 87 -51 c175
-101 412 -188 608 -223 126 -23 349 -30 470 -16 179 21 372 81 524 164 258
140 462 383 522 620 6 26 13 46 14 45 2 -2 14 -30 28 -63z m-2614 -1600 c19
-118 38 -315 30 -315 -18 0 -83 77 -105 124 -17 36 -24 69 -24 113 0 70 10
103 47 152 31 40 34 37 52 -74z m3307 30 c48 -101 23 -214 -66 -300 l-41 -40
5 50 c15 130 37 303 42 333 5 28 9 31 22 20 8 -7 26 -35 38 -63z"/>
<path d="M3270 3209 c-563 -203 -998 -410 -1237 -588 -209 -156 -367 -383
-434 -621 -48 -173 -96 -538 -78 -588 11 -30 32 -36 174 -56 1276 -171 3069
-235 4575 -161 586 29 1324 91 1770 150 230 31 258 38 266 70 14 56 -35 390
-82 563 -102 372 -305 609 -704 825 -223 120 -668 306 -1032 431 -42 14 -84
29 -92 32 -11 4 -60 -37 -164 -138 -247 -242 -462 -418 -823 -678 -222 -159
-343 -237 -401 -257 -64 -22 -163 -13 -230 22 -72 37 -359 235 -570 394 -233
174 -454 360 -624 525 -78 75 -144 136 -145 135 -2 0 -78 -27 -169 -60z"/>
</g>
</svg>
